<?xml version="1.0" encoding="iso-8859-1"?>
<!-- Generator: Adobe Illustrator 19.0.0, SVG Export Plug-In . SVG Version: 6.00 Build 0)  -->
<svg version="1.1" id="Capa_1" xmlns="http://www.w3.org/2000/svg" xmlns:xlink="http://www.w3.org/1999/xlink" x="0px" y="0px"
	 viewBox="0 0 511.999 511.999" style="enable-background:new 0 0 511.999 511.999;" xml:space="preserve">
<path style="fill:#EDEDED;" d="M318.813,230.762h-29.542c8.553,5.03,14.314,14.445,14.314,25.238l0,0
	c0,10.793-5.762,20.208-14.314,25.238h29.542c31.537,0,57.102,26.076,57.102,58.242v87.363c0,16.083-12.783,29.121-28.551,29.121
	H164.636c-15.768,0-28.551-13.038-28.551-29.121V339.48c0-32.166,25.566-58.242,57.102-58.242h29.542
	c-8.553-5.03-14.314-14.445-14.314-25.238l0,0c0-10.793,5.762-20.208,14.314-25.238h-29.542c-31.537,0-57.102-26.076-57.102-58.242
	V85.156c0-16.083,12.783-29.121,28.551-29.121h182.727c15.768,0,28.551,13.038,28.551,29.121v87.363
	C375.915,204.686,350.349,230.762,318.813,230.762z"/>
<path style="fill:#D8D8D8;" d="M245.347,233.628c-6.283,5.34-10.284,13.377-10.284,22.372c0,8.994,4.001,17.032,10.284,22.372
	c2.503,2.127,4.03,5.214,4.03,8.537v0.882c0,6.031-4.793,10.92-10.706,10.92h-35.759c-21.928,0-40.001,17.929-40.176,40.294
	c-0.001,0.158-0.002,0.317-0.002,0.476v87.363c0,16.083,12.783,29.121,28.551,29.121h-26.648c-15.768,0-28.551-13.038-28.551-29.121
	V339.48c0-32.166,25.566-58.242,57.102-58.242h26.648h2.894c-8.553-5.03-14.314-14.445-14.314-25.238s5.762-20.208,14.314-25.238
	h-2.894h-26.648c-31.537,0-57.102-26.076-57.102-58.242V85.156c0-16.083,12.783-29.121,28.551-29.121h26.648
	c-15.768,0-28.551,13.038-28.551,29.121v87.363c0,0.159,0.001,0.317,0.002,0.476c0.176,22.365,18.249,40.294,40.176,40.294h35.759
	c5.913,0,10.706,4.889,10.706,10.92v0.882C249.377,228.414,247.85,231.501,245.347,233.628z"/>
<path style="fill:#F1BA55;" d="M347.364,153.105v19.414c0,16.083-12.783,29.121-28.551,29.121H193.188
	c-15.768,0-28.551-13.038-28.551-29.121v-19.414c0-5.361,4.261-9.707,9.517-9.707h163.693
	C343.103,143.398,347.364,147.744,347.364,153.105z M328.669,370.666l-55.618-20.26c-5.754-2.097-11.771-3.16-17.882-3.16
	c-6.215,0-12.328,1.099-18.17,3.265l-53.821,19.962c-11.132,4.128-18.542,14.919-18.542,27.001v0.248
	c0,4.289,3.409,7.766,7.614,7.766h167.5c4.205,0,7.614-3.477,7.614-7.766v-0.248h-0.01
	C347.252,385.464,339.773,374.711,328.669,370.666z"/>
<path style="fill:#E3A349;" d="M164.636,172.52v-19.414c0-5.361,4.261-9.707,9.517-9.707h19.034v29.121
	c0,16.083,12.783,29.121,28.551,29.121h-28.551C177.419,201.641,164.636,188.603,164.636,172.52z M236.999,350.511l-53.821,19.962
	c-11.132,4.128-18.542,14.919-18.542,27.001v0.248c0,4.289,3.409,7.766,7.614,7.766h24.108c6.259-23.463,21.37-43.202,41.452-55.257
	C237.54,350.326,237.268,350.412,236.999,350.511z"/>
<path style="fill:#B17F4D;" d="M98.017,26.914c0-5.361,4.261-9.707,9.517-9.707h296.932c5.256,0,9.517,4.346,9.517,9.707
	c0,26.805-21.305,48.535-47.585,48.535H145.602C119.322,75.449,98.017,53.719,98.017,26.914z M366.398,436.551H145.602
	c-26.281,0-47.585,21.73-47.585,48.535l0,0c0,5.361,4.261,9.707,9.517,9.707h296.932c5.256,0,9.517-4.346,9.517-9.707l0,0
	C413.983,458.281,392.678,436.551,366.398,436.551z"/>
<path style="fill:#976D4C;" d="M98.017,26.914c0-5.361,4.261-9.707,9.517-9.707h36.165c-5.256,0-9.517,4.346-9.517,9.707v19.414
	c0,16.083,12.783,29.121,28.551,29.121h-17.131C119.322,75.449,98.017,53.719,98.017,26.914z M162.733,436.551h-17.131
	c-26.281,0-47.585,21.73-47.585,48.535c0,5.361,4.261,9.707,9.517,9.707h36.165c-5.256,0-9.517-4.346-9.517-9.707v-19.414
	C134.182,449.588,146.965,436.551,162.733,436.551z"/>
<path style="fill:#D19149;" d="M423.5,485.086v9.707c0,5.361-4.261,9.707-9.517,9.707H98.017c-5.256,0-9.517-4.346-9.517-9.707
	v-9.707c0-5.361,4.261-9.707,9.517-9.707h315.966C419.239,475.379,423.5,479.725,423.5,485.086z M413.983,7.5H98.017
	c-5.256,0-9.517,4.346-9.517,9.707v9.707c0,5.361,4.261,9.707,9.517,9.707h315.966c5.256,0,9.517-4.346,9.517-9.707v-9.707
	C423.5,11.846,419.239,7.5,413.983,7.5z"/>
<path d="M248.272,255.515c0,4.143-3.357,7.5-7.5,7.5s-7.5-3.357-7.5-7.5v-0.971c0-4.143,3.357-7.5,7.5-7.5s7.5,3.357,7.5,7.5
	V255.515z M240.772,326.596c4.143,0,7.5-3.357,7.5-7.5v-0.971c0-4.143-3.357-7.5-7.5-7.5s-7.5,3.357-7.5,7.5v0.971
	C233.272,323.238,236.63,326.596,240.772,326.596z M383.096,80.269c0.212,1.612,0.318,3.244,0.318,4.888v87.363
	c0,36.25-28.98,65.742-64.603,65.742h-12.264c2.923,5.352,4.536,11.442,4.536,17.738c0,6.296-1.613,12.387-4.536,17.738h12.264
	c35.622,0,64.603,29.492,64.603,65.742v87.363c0,1.624-0.104,3.234-0.311,4.828c16.973,5.474,30.612,19.109,35.976,36.995
	c6.901,2.195,11.92,8.726,11.92,16.419v9.707c0,9.488-7.634,17.207-17.017,17.207H98.017C88.634,512,81,504.281,81,494.793v-9.707
	c0-7.693,5.02-14.224,11.92-16.419c5.364-17.888,19.001-31.523,35.977-36.996c-0.207-1.594-0.312-3.206-0.312-4.827V339.48
	c0-36.25,28.98-65.742,64.603-65.742h12.264c-2.923-5.352-4.536-11.442-4.536-17.738s1.613-12.387,4.536-17.738h-12.264
	c-35.622,0-64.603-29.492-64.603-65.742V85.156c0-1.639,0.105-3.264,0.316-4.87c-16.99-5.551-30.715-19.33-36.02-37.09
	C85.979,40.851,81,34.307,81,26.621V17.5C81,7.851,88.851,0,98.5,0h315c9.649,0,17.5,7.851,17.5,17.5v9.121
	c0,7.686-4.98,14.229-11.883,16.575C413.814,60.912,400.049,74.7,383.096,80.269z M413.5,29.121c1.379,0,2.5-1.121,2.5-2.5V17.5
	c0-1.379-1.121-2.5-2.5-2.5h-315c-1.379,0-2.5,1.121-2.5,2.5v9.121c0,1.379,1.121,2.5,2.5,2.5H413.5z M366.397,444.051H145.603
	c-15.886,0-29.974,9.495-36.414,23.828h55.74c4.143,0,7.5,3.357,7.5,7.5s-3.357,7.5-7.5,7.5H98.017c-1.112,0-2.017,0.99-2.017,2.207
	v9.707c0,1.217,0.904,2.207,2.017,2.207h315.967c1.112,0,2.017-0.99,2.017-2.207v-9.707c0-1.217-0.904-2.207-2.017-2.207H193.005
	c-4.143,0-7.5-3.357-7.5-7.5s3.357-7.5,7.5-7.5h209.807C396.37,453.549,382.278,444.051,366.397,444.051z M402.788,44.121H109.206
	c6.448,14.212,20.601,23.828,36.396,23.828h161.131c4.143,0,7.5,3.357,7.5,7.5s-3.357,7.5-7.5,7.5h-161.13
	c-0.637,0-1.273-0.012-1.906-0.034c-0.074,0.741-0.111,1.488-0.111,2.241v87.363c0,27.979,22.252,50.742,49.603,50.742h47.585
	c4.143,0,7.5,3.357,7.5,7.5s-3.357,7.5-7.5,7.5h-15.831c-5.61,4.023-9.026,10.656-9.026,17.738c0,7.082,3.416,13.715,9.026,17.738
	h15.831c4.143,0,7.5,3.357,7.5,7.5s-3.357,7.5-7.5,7.5h-47.585c-27.351,0-49.603,22.763-49.603,50.742v87.363
	c0,0.752,0.037,1.499,0.111,2.24c0.634-0.022,1.269-0.033,1.906-0.033h220.795c0.638,0,1.273,0.011,1.906,0.033
	c0.074-0.741,0.111-1.488,0.111-2.24V339.48c0-27.979-22.252-50.742-49.603-50.742H289.27c-0.321,0-0.638-0.021-0.95-0.061
	c-0.312,0.04-0.63,0.061-0.953,0.061h-18.043c-4.143,0-7.5-3.357-7.5-7.5s3.357-7.5,7.5-7.5h17.734
	c5.61-4.023,9.026-10.656,9.026-17.738s-3.416-13.715-9.026-17.738h-17.734c-4.143,0-7.5-3.357-7.5-7.5s3.357-7.5,7.5-7.5h19.034
	c0.153,0,0.306,0.005,0.457,0.014c0.15-0.009,0.303-0.014,0.455-0.014h29.542c27.351,0,49.603-22.763,49.603-50.742V85.156
	c0-0.752-0.037-1.5-0.111-2.241c-0.634,0.022-1.269,0.034-1.906,0.034h-29.842c-4.143,0-7.5-3.357-7.5-7.5s3.357-7.5,7.5-7.5h29.842
	C382.122,67.949,396.325,58.313,402.788,44.121z M174.153,135.898h163.693c9.383,0,17.017,7.719,17.017,17.207v19.414
	c0,20.193-16.172,36.621-36.051,36.621H193.188c-19.879,0-36.051-16.428-36.051-36.621v-19.414
	C157.137,143.617,164.771,135.898,174.153,135.898z M337.846,150.898H174.153c-1.112,0-2.017,0.99-2.017,2.207v19.414
	c0,11.922,9.443,21.621,21.051,21.621h125.625c11.607,0,21.051-9.699,21.051-21.621v-19.414
	C339.863,151.889,338.959,150.898,337.846,150.898z M275.618,343.358l55.618,20.261c13.87,5.053,23.315,18.433,23.612,33.38
	c0.01,0.157,0.015,0.315,0.015,0.476v0.248c0,8.418-6.779,15.266-15.113,15.266h-167.5c-8.334,0-15.113-6.848-15.113-15.266v-0.248
	c0-15.157,9.417-28.834,23.434-34.033l53.82-19.962c6.679-2.478,13.67-3.733,20.778-3.733
	C262.16,339.746,269.04,340.962,275.618,343.358z M326.102,377.713l-55.618-20.261c-4.928-1.796-10.08-2.706-15.314-2.706
	c-5.322,0-10.558,0.941-15.562,2.798l-53.82,19.962c-8.165,3.028-13.65,11.053-13.65,19.969v0.248c0,0.204,0.119,0.269,0.121,0.269
	l167.492-0.003c0.003-0.003,0.094-0.058,0.11-0.213c-0.003-0.079-0.005-0.157-0.006-0.236
	C339.779,388.649,334.252,380.682,326.102,377.713z M261.824,309.389c0,4.143,3.357,7.5,7.5,7.5s7.5-3.357,7.5-7.5v-0.971
	c0-4.143-3.357-7.5-7.5-7.5s-7.5,3.357-7.5,7.5V309.389z"/>
<g>
</g>
<g>
</g>
<g>
</g>
<g>
</g>
<g>
</g>
<g>
</g>
<g>
</g>
<g>
</g>
<g>
</g>
<g>
</g>
<g>
</g>
<g>
</g>
<g>
</g>
<g>
</g>
<g>
</g>
</svg>
